{
    "asset" : {
        "generator" : "Khronos glTF Blender I/O v3.3.36",
        "version" : "2.0"
    },
    "scene" : 0,
    "scenes" : [
        {
            "name" : "Scene",
            "nodes" : [
                0,
                1
            ]
        }
    ],
    "nodes" : [
        {
            "mesh" : 0,
            "name" : "Curve",
            "rotation" : [
                0.7086079716682434,
                0,
                0,
                0.7056024670600891
            ],
            "scale" : [
                1675.19482421875,
                1675.19482421875,
                1675.19482421875
            ],
            "translation" : [
                -72.53003692626953,
                -54.007843017578125,
                -7.609643936157227
            ]
        },
        {
            "mesh" : 1,
            "name" : "Curve.001",
            "rotation" : [
                0.7106946110725403,
                0,
                0,
                0.7035006880760193
            ],
            "scale" : [
                1670.26904296875,
                1670.2686767578125,
                1670.2686767578125
            ],
            "translation" : [
                -74.96131896972656,
                -52.25102996826172,
                0
            ]
        }
    ],
    "materials" : [
        {
            "doubleSided" : true,
            "name" : "SVGMat.019",
            "pbrMetallicRoughness" : {
                "baseColorFactor" : [
                    0.5520114302635193,
                    0.5088813304901123,
                    0.13013647496700287,
                    1
                ],
                "metallicFactor" : 0,
                "roughnessFactor" : 0.4000000059604645
            }
        },
        {
            "doubleSided" : true,
            "name" : "SVGMat.037",
            "pbrMetallicRoughness" : {
                "baseColorFactor" : [
                    0.43415364623069763,
                    0.423267662525177,
                    0.31398871541023254,
                    1
                ],
                "metallicFactor" : 0,
                "roughnessFactor" : 0.4000000059604645
            }
        }
    ],
    "meshes" : [
        {
            "name" : "Curve.017",
            "primitives" : [
                {
                    "attributes" : {
                        "POSITION" : 0,
                        "NORMAL" : 1,
                        "TEXCOORD_0" : 2
                    },
                    "indices" : 3,
                    "material" : 0
                }
            ]
        },
        {
            "name" : "Curve.034",
            "primitives" : [
                {
                    "attributes" : {
                        "POSITION" : 4,
                        "NORMAL" : 5,
                        "TEXCOORD_0" : 6
                    },
                    "indices" : 7,
                    "material" : 1
                }
            ]
        }
    ],
    "accessors" : [
        {
            "bufferView" : 0,
            "componentType" : 5126,
            "count" : 6169,
            "max" : [
                0.10419057309627533,
                0,
                -0.005798570811748505
            ],
            "min" : [
                0.000513360952027142,
                0,
                -0.08819173276424408
            ],
            "type" : "VEC3"
        },
        {
            "bufferView" : 1,
            "componentType" : 5126,
            "count" : 6169,
            "type" : "VEC3"
        },
        {
            "bufferView" : 2,
            "componentType" : 5126,
            "count" : 6169,
            "type" : "VEC2"
        },
        {
            "bufferView" : 3,
            "componentType" : 5123,
            "count" : 13899,
            "type" : "SCALAR"
        },
        {
            "bufferView" : 4,
            "componentType" : 5126,
            "count" : 5986,
            "max" : [
                0.10419057309627533,
                0,
                -0.005798570811748505
            ],
            "min" : [
                0.000513360952027142,
                0,
                -0.08819173276424408
            ],
            "type" : "VEC3"
        },
        {
            "bufferView" : 5,
            "componentType" : 5126,
            "count" : 5986,
            "type" : "VEC3"
        },
        {
            "bufferView" : 6,
            "componentType" : 5126,
            "count" : 5986,
            "type" : "VEC2"
        },
        {
            "bufferView" : 7,
            "componentType" : 5123,
            "count" : 13551,
            "type" : "SCALAR"
        }
    ],
    "bufferViews" : [
        {
            "buffer" : 0,
            "byteLength" : 74028,
            "byteOffset" : 0,
            "target" : 34962
        },
        {
            "buffer" : 0,
            "byteLength" : 74028,
            "byteOffset" : 74028,
            "target" : 34962
        },
        {
            "buffer" : 0,
            "byteLength" : 49352,
            "byteOffset" : 148056,
            "target" : 34962
        },
        {
            "buffer" : 0,
            "byteLength" : 27798,
            "byteOffset" : 197408,
            "target" : 34963
        },
        {
            "buffer" : 0,
            "byteLength" : 71832,
            "byteOffset" : 225208,
            "target" : 34962
        },
        {
            "buffer" : 0,
            "byteLength" : 71832,
            "byteOffset" : 297040,
            "target" : 34962
        },
        {
            "buffer" : 0,
            "byteLength" : 47888,
            "byteOffset" : 368872,
            "target" : 34962
        },
        {
            "buffer" : 0,
            "byteLength" : 27102,
            "byteOffset" : 416760,
            "target" : 34963
        }
    ],
    "buffers" : [
        {
            "byteLength" : 443864,
            "uri" : "data:application/octet-stream;base64,"
        }
    ]
}
