{
    "asset" : {
        "generator" : "Khronos glTF Blender I/O v3.3.36",
        "version" : "2.0"
    },
    "scene" : 0,
    "scenes" : [
        {
            "name" : "Scene",
            "nodes" : [
                0
            ]
        }
    ],
    "nodes" : [
        {
            "mesh" : 0,
            "name" : "Curve",
            "translation" : [
                -0.02674347348511219,
                0.011175330728292465,
                0.03046410158276558
            ]
        }
    ],
    "materials" : [
        {
            "doubleSided" : true,
            "name" : "SVGMat.019",
            "pbrMetallicRoughness" : {
                "baseColorFactor" : [
                    0.5520114302635193,
                    0.5088813304901123,
                    0.13013647496700287,
                    1
                ],
                "metallicFactor" : 0,
                "roughnessFactor" : 0.4000000059604645
            }
        }
    ],
    "meshes" : [
        {
            "name" : "Curve.017",
            "primitives" : [
                {
                    "attributes" : {
                        "POSITION" : 0,
                        "NORMAL" : 1,
                        "TEXCOORD_0" : 2
                    },
                    "indices" : 3,
                    "material" : 0
                }
            ]
        }
    ],
    "accessors" : [
        {
            "bufferView" : 0,
            "componentType" : 5126,
            "count" : 6169,
            "max" : [
                0.10419057309627533,
                0,
                -0.005798570811748505
            ],
            "min" : [
                0.000513360952027142,
                0,
                -0.08819173276424408
            ],
            "type" : "VEC3"
        },
        {
            "bufferView" : 1,
            "componentType" : 5126,
            "count" : 6169,
            "type" : "VEC3"
        },
        {
            "bufferView" : 2,
            "componentType" : 5126,
            "count" : 6169,
            "type" : "VEC2"
        },
        {
            "bufferView" : 3,
            "componentType" : 5123,
            "count" : 13899,
            "type" : "SCALAR"
        }
    ],
    "bufferViews" : [
        {
            "buffer" : 0,
            "byteLength" : 74028,
            "byteOffset" : 0,
            "target" : 34962
        },
        {
            "buffer" : 0,
            "byteLength" : 74028,
            "byteOffset" : 74028,
            "target" : 34962
        },
        {
            "buffer" : 0,
            "byteLength" : 49352,
            "byteOffset" : 148056,
            "target" : 34962
        },
        {
            "buffer" : 0,
            "byteLength" : 27798,
            "byteOffset" : 197408,
            "target" : 34963
        }
    ],
    "buffers" : [
        {
            "byteLength" : 225208,
            "uri" : "data:application/octet-stream;base64,"
        }
    ]
}
