{
    "asset" : {
        "generator" : "Khronos glTF Blender I/O v3.3.36",
        "version" : "2.0"
    },
    "scene" : 0,
    "scenes" : [
        {
            "name" : "Scene",
            "nodes" : [
                0
            ]
        }
    ],
    "nodes" : [
        {
            "mesh" : 0,
            "name" : "Curve",
            "rotation" : [
                0.7086699604988098,
                0,
                0,
                0.7055401802062988
            ],
            "scale" : [
                179.34759521484375,
                179.34762573242188,
                179.34762573242188
            ],
            "translation" : [
                -6.617550849914551,
                7.6861443519592285,
                -0.041404929012060165
            ]
        }
    ],
    "materials" : [
        {
            "doubleSided" : true,
            "name" : "SVGMat.003",
            "pbrMetallicRoughness" : {
                "baseColorFactor" : [
                    0.672443151473999,
                    0.672443151473999,
                    0.672443151473999,
                    1
                ],
                "metallicFactor" : 0,
                "roughnessFactor" : 0.4000000059604645
            }
        }
    ],
    "meshes" : [
        {
            "name" : "Curve.034",
            "primitives" : [
                {
                    "attributes" : {
                        "POSITION" : 0,
                        "NORMAL" : 1,
                        "TEXCOORD_0" : 2
                    },
                    "indices" : 3,
                    "material" : 0
                }
            ]
        }
    ],
    "accessors" : [
        {
            "bufferView" : 0,
            "componentType" : 5126,
            "count" : 5947,
            "max" : [
                0.05225970223546028,
                0,
                0.041404929012060165
            ],
            "min" : [
                -0.05140916258096695,
                0,
                -0.04107288643717766
            ],
            "type" : "VEC3"
        },
        {
            "bufferView" : 1,
            "componentType" : 5126,
            "count" : 5947,
            "type" : "VEC3"
        },
        {
            "bufferView" : 2,
            "componentType" : 5126,
            "count" : 5947,
            "type" : "VEC2"
        },
        {
            "bufferView" : 3,
            "componentType" : 5123,
            "count" : 13311,
            "type" : "SCALAR"
        }
    ],
    "bufferViews" : [
        {
            "buffer" : 0,
            "byteLength" : 71364,
            "byteOffset" : 0,
            "target" : 34962
        },
        {
            "buffer" : 0,
            "byteLength" : 71364,
            "byteOffset" : 71364,
            "target" : 34962
        },
        {
            "buffer" : 0,
            "byteLength" : 47576,
            "byteOffset" : 142728,
            "target" : 34962
        },
        {
            "buffer" : 0,
            "byteLength" : 26622,
            "byteOffset" : 190304,
            "target" : 34963
        }
    ],
    "buffers" : [
        {
            "byteLength" : 216928,
            "uri" : "data:application/octet-stream;base64,"
        }
    ]
}
