{
    "accessors": [
        {
            "bufferView": 0,
            "componentType": 5126,
            "count": 6126,
            "max": [
                0.1201019287109375,
                0.1819915771484375,
                0.09099578857421875
            ],
            "min": [
                -0.1201019287109375,
                0.0,
                -0.09099578857421875
            ],
            "type": "VEC3"
        },
        {
            "bufferView": 1,
            "componentType": 5126,
            "count": 6126,
            "type": "VEC2"
        },
        {
            "bufferView": 2,
            "componentType": 5126,
            "count": 6126,
            "type": "VEC3"
        },
        {
            "bufferView": 3,
            "componentType": 5123,
            "count": 8433,
            "type": "SCALAR"
        },
        {
            "bufferView": 4,
            "componentType": 5123,
            "count": 3,
            "type": "SCALAR"
        },
        {
            "bufferView": 5,
            "componentType": 5123,
            "count": 5808,
            "type": "SCALAR"
        },
        {
            "bufferView": 6,
            "componentType": 5123,
            "count": 3,
            "type": "SCALAR"
        },
        {
            "bufferView": 7,
            "componentType": 5123,
            "count": 8433,
            "type": "SCALAR"
        }
    ],
    "asset": {
        "generator": "Adobe Creative Cloud",
        "version": "2.0"
    },
    "bufferViews": [
        {
            "buffer": 0,
            "byteLength": 73512
        },
        {
            "buffer": 0,
            "byteLength": 49008,
            "byteOffset": 73512
        },
        {
            "buffer": 0,
            "byteLength": 73512,
            "byteOffset": 122520
        },
        {
            "buffer": 0,
            "byteLength": 16866,
            "byteOffset": 196032
        },
        {
            "buffer": 0,
            "byteLength": 6,
            "byteOffset": 212898
        },
        {
            "buffer": 0,
            "byteLength": 11616,
            "byteOffset": 212904
        },
        {
            "buffer": 0,
            "byteLength": 6,
            "byteOffset": 224520
        },
        {
            "buffer": 0,
            "byteLength": 16866,
            "byteOffset": 224526
        },
        {
            "buffer": 0,
            "byteLength": 34007,
            "byteOffset": 241392
        },
        {
            "buffer": 0,
            "byteLength": 42949,
            "byteOffset": 275399
        }
    ],
    "buffers": [
        {
            "byteLength": 318348,
            "uri": "mStars3d.bin"
        }
    ],
    "extensionsRequired": [
        "KHR_texture_transform",
        "KHR_texture_transform",
        "KHR_texture_transform",
        "KHR_texture_transform"
    ],
    "extensionsUsed": [
        "KHR_texture_transform",
        "KHR_texture_transform",
        "KHR_texture_transform",
        "KHR_texture_transform"
    ],
    "images": [
        {
            "bufferView": 8,
            "mimeType": "image/jpeg",
            "name": "mStars.JPG"
        },
        {
            "bufferView": 9,
            "mimeType": "image/jpeg",
            "name": "mStars Extrusion Material - Default Texture.JPG"
        }
    ],
    "materials": [
        {
            "alphaMode": "OPAQUE",
            "doubleSided": true,
            "emissiveFactor": [
                0.0,
                0.0,
                0.0
            ],
            "name": "mStars Front Inflation Material",
            "pbrMetallicRoughness": {
                "baseColorFactor": [
                    0.5,
                    0.5,
                    0.5,
                    1.0
                ],
                "baseColorTexture": {
                    "extensions": {
                        "KHR_texture_transform": {
                            "offset": [
                                0.0007000000332482159,
                                0.19462984800338745
                            ],
                            "rotation": 0.0,
                            "scale": [
                                0.9884851574897766,
                                0.6107315421104431
                            ]
                        }
                    },
                    "index": 0
                },
                "metallicFactor": 0.07999999821186066,
                "roughnessFactor": 0.3333333432674408
            }
        },
        {
            "alphaMode": "OPAQUE",
            "doubleSided": true,
            "emissiveFactor": [
                0.0,
                0.0,
                0.0
            ],
            "name": "mStars Front Bevel Material",
            "pbrMetallicRoughness": {
                "baseColorFactor": [
                    0.5,
                    0.5,
                    0.5,
                    1.0
                ],
                "baseColorTexture": {
                    "extensions": {
                        "KHR_texture_transform": {
                            "offset": [
                                0.0007000000332482159,
                                0.19462984800338745
                            ],
                            "rotation": 0.0,
                            "scale": [
                                0.9884851574897766,
                                0.6107315421104431
                            ]
                        }
                    },
                    "index": 0
                },
                "metallicFactor": 0.07999999821186066,
                "roughnessFactor": 0.3333333432674408
            }
        },
        {
            "alphaMode": "OPAQUE",
            "doubleSided": true,
            "emissiveFactor": [
                0.0,
                0.0,
                0.0
            ],
            "name": "mStars Extrusion Material",
            "pbrMetallicRoughness": {
                "baseColorFactor": [
                    0.5,
                    0.5,
                    0.5,
                    1.0
                ],
                "baseColorTexture": {
                    "index": 1
                },
                "metallicFactor": 0.07999999821186066,
                "roughnessFactor": 0.3333333432674408
            }
        },
        {
            "alphaMode": "OPAQUE",
            "doubleSided": true,
            "emissiveFactor": [
                0.0,
                0.0,
                0.0
            ],
            "name": "mStars Back Bevel Material",
            "pbrMetallicRoughness": {
                "baseColorFactor": [
                    0.5,
                    0.5,
                    0.5,
                    1.0
                ],
                "baseColorTexture": {
                    "extensions": {
                        "KHR_texture_transform": {
                            "offset": [
                                0.0007000000332482159,
                                0.19462984800338745
                            ],
                            "rotation": 0.0,
                            "scale": [
                                0.9884851574897766,
                                0.6107315421104431
                            ]
                        }
                    },
                    "index": 0
                },
                "metallicFactor": 0.07999999821186066,
                "roughnessFactor": 0.3333333432674408
            }
        },
        {
            "alphaMode": "OPAQUE",
            "doubleSided": true,
            "emissiveFactor": [
                0.0,
                0.0,
                0.0
            ],
            "name": "mStars Back Inflation Material",
            "pbrMetallicRoughness": {
                "baseColorFactor": [
                    0.5,
                    0.5,
                    0.5,
                    1.0
                ],
                "baseColorTexture": {
                    "extensions": {
                        "KHR_texture_transform": {
                            "offset": [
                                0.0007000000332482159,
                                0.19462984800338745
                            ],
                            "rotation": 0.0,
                            "scale": [
                                0.9884851574897766,
                                0.6107315421104431
                            ]
                        }
                    },
                    "index": 0
                },
                "metallicFactor": 0.07999999821186066,
                "roughnessFactor": 0.3333333432674408
            }
        }
    ],
    "meshes": [
        {
            "name": "mStars",
            "primitives": [
                {
                    "attributes": {
                        "NORMAL": 2,
                        "POSITION": 0,
                        "TEXCOORD_0": 1
                    },
                    "indices": 3,
                    "material": 0,
                    "mode": 4
                },
                {
                    "attributes": {
                        "NORMAL": 2,
                        "POSITION": 0,
                        "TEXCOORD_0": 1
                    },
                    "indices": 4,
                    "material": 1,
                    "mode": 4
                },
                {
                    "attributes": {
                        "NORMAL": 2,
                        "POSITION": 0,
                        "TEXCOORD_0": 1
                    },
                    "indices": 5,
                    "material": 2,
                    "mode": 4
                },
                {
                    "attributes": {
                        "NORMAL": 2,
                        "POSITION": 0,
                        "TEXCOORD_0": 1
                    },
                    "indices": 6,
                    "material": 3,
                    "mode": 4
                },
                {
                    "attributes": {
                        "NORMAL": 2,
                        "POSITION": 0,
                        "TEXCOORD_0": 1
                    },
                    "indices": 7,
                    "material": 4,
                    "mode": 4
                }
            ]
        }
    ],
    "nodes": [
        {
            "matrix": [
                1.0,
                0.0,
                0.0,
                0.0,
                0.0,
                1.0,
                0.0,
                0.0,
                0.0,
                0.0,
                1.0,
                0.0,
                -120.2719497680664,
                -148.99868774414063,
                90.9990005493164,
                1.0
            ],
            "mesh": 0,
            "name": "mStars"
        }
    ],
    "scene": 0,
    "scenes": [
        {
            "name": "Scene",
            "nodes": [
                0
            ]
        }
    ],
    "textures": [
        {
            "source": 0
        },
        {
            "source": 1
        }
    ]
}
