{
    "asset" : {
        "generator" : "Khronos glTF Blender I/O v3.3.36",
        "version" : "2.0"
    },
    "extensionsUsed" : [
        "KHR_materials_specular"
    ],
    "scene" : 0,
    "scenes" : [
        {
            "name" : "Scene",
            "nodes" : [
                0,
                1
            ]
        }
    ],
    "nodes" : [
        {
            "mesh" : 0,
            "name" : "10540_Tennis_racket_V2_L3",
            "rotation" : [
                0.7071068286895752,
                0,
                0,
                0.7071067094802856
            ],
            "scale" : [
                0.149581179022789,
                0.14364191889762878,
                0.16781532764434814
            ],
            "translation" : [
                0,
                0,
                -1.7426494359970093
            ]
        },
        {
            "mesh" : 1,
            "name" : "Curve",
            "rotation" : [
                0.7073891758918762,
                0,
                0,
                0.7068242430686951
            ],
            "scale" : [
                194.19680786132812,
                194.1968231201172,
                194.1968231201172
            ],
            "translation" : [
                -7.954268932342529,
                3.827518939971924,
                -3.8175289630889893
            ]
        }
    ],
    "materials" : [
        {
            "doubleSided" : true,
            "extensions" : {
                "KHR_materials_specular" : {
                    "specularColorFactor" : [
                        0,
                        0,
                        0
                    ]
                }
            },
            "name" : "default",
            "pbrMetallicRoughness" : {
                "baseColorTexture" : {
                    "index" : 0
                },
                "metallicFactor" : 0,
                "roughnessFactor" : 0.8999999761581421
            }
        },
        {
            "doubleSided" : true,
            "name" : "SVGMat",
            "pbrMetallicRoughness" : {
                "baseColorFactor" : [
                    0,
                    0,
                    0,
                    1
                ],
                "metallicFactor" : 0,
                "roughnessFactor" : 0.4000000059604645
            }
        }
    ],
    "meshes" : [
        {
            "name" : "10540_Tennis_racket_V2_L3",
            "primitives" : [
                {
                    "attributes" : {
                        "POSITION" : 0,
                        "NORMAL" : 1,
                        "TEXCOORD_0" : 2
                    },
                    "indices" : 3,
                    "material" : 0
                }
            ]
        },
        {
            "name" : "Curve",
            "primitives" : [
                {
                    "attributes" : {
                        "POSITION" : 4,
                        "NORMAL" : 5,
                        "TEXCOORD_0" : 6
                    },
                    "indices" : 7,
                    "material" : 1
                }
            ]
        }
    ],
    "textures" : [
        {
            "sampler" : 0,
            "source" : 0
        }
    ],
    "images" : [
        {
            "bufferView" : 4,
            "mimeType" : "image/jpeg",
            "name" : "10540_Tennis_racket_V2_Diffuse"
        }
    ],
    "accessors" : [
        {
            "bufferView" : 0,
            "componentType" : 5126,
            "count" : 14095,
            "max" : [
                15.212800025939941,
                2.061800003051758,
                24.073999404907227
            ],
            "min" : [
                -15.14169979095459,
                -0.8659999966621399,
                -44.60129928588867
            ],
            "type" : "VEC3"
        },
        {
            "bufferView" : 1,
            "componentType" : 5126,
            "count" : 14095,
            "type" : "VEC3"
        },
        {
            "bufferView" : 2,
            "componentType" : 5126,
            "count" : 14095,
            "type" : "VEC2"
        },
        {
            "bufferView" : 3,
            "componentType" : 5123,
            "count" : 68688,
            "type" : "SCALAR"
        },
        {
            "bufferView" : 5,
            "componentType" : 5126,
            "count" : 5908,
            "max" : [
                0.05183292180299759,
                0,
                0.042183466255664825
            ],
            "min" : [
                -0.05183593928813934,
                0,
                -0.040294356644153595
            ],
            "type" : "VEC3"
        },
        {
            "bufferView" : 6,
            "componentType" : 5126,
            "count" : 5908,
            "type" : "VEC3"
        },
        {
            "bufferView" : 7,
            "componentType" : 5126,
            "count" : 5908,
            "type" : "VEC2"
        },
        {
            "bufferView" : 8,
            "componentType" : 5123,
            "count" : 13314,
            "type" : "SCALAR"
        }
    ],
    "bufferViews" : [
        {
            "buffer" : 0,
            "byteLength" : 169140,
            "byteOffset" : 0,
            "target" : 34962
        },
        {
            "buffer" : 0,
            "byteLength" : 169140,
            "byteOffset" : 169140,
            "target" : 34962
        },
        {
            "buffer" : 0,
            "byteLength" : 112760,
            "byteOffset" : 338280,
            "target" : 34962
        },
        {
            "buffer" : 0,
            "byteLength" : 137376,
            "byteOffset" : 451040,
            "target" : 34963
        },
        {
            "buffer" : 0,
            "byteLength" : 210424,
            "byteOffset" : 588416
        },
        {
            "buffer" : 0,
            "byteLength" : 70896,
            "byteOffset" : 798840,
            "target" : 34962
        },
        {
            "buffer" : 0,
            "byteLength" : 70896,
            "byteOffset" : 869736,
            "target" : 34962
        },
        {
            "buffer" : 0,
            "byteLength" : 47264,
            "byteOffset" : 940632,
            "target" : 34962
        },
        {
            "buffer" : 0,
            "byteLength" : 26628,
            "byteOffset" : 987896,
            "target" : 34963
        }
    ],
    "samplers" : [
        {
            "magFilter" : 9729,
            "minFilter" : 9987
        }
    ],
    "buffers" : [
        {
            "byteLength" : 1014524,
            "uri" : "data:application/octet-stream;base64,"
        }
    ]
}
